<svg width="12" height="9" viewBox="0 0 12 9" fill="none" xmlns="http://www.w3.org/2000/svg">
<g clip-path="url(#clip0_474_34)">
<path d="M0 0H12V9H0" fill="#BD3D44"/>
<path d="M0 1.03711H12ZM0 2.41898H12ZM0 3.80648H12ZM0 5.19398H12ZM0 6.58148H12ZM0 7.96898H12Z" fill="black"/>
<path d="M0 0.69043V1.38418H12V0.69043H0ZM0 2.0723V2.76605H12V2.0723H0ZM0 3.4598V4.15355H12V3.4598H0ZM0 4.8473V5.54105H12V4.8473H0ZM0 6.2348V6.92855H12V6.2348H0ZM0 7.6223V8.31605H12V7.6223H0Z" fill="white"/>
<path d="M0 0H6.84V4.84688H0" fill="#192F5D"/>
<path d="M6.2623 4.0873L6.43105 4.59355L5.9998 4.2748H6.5248L6.09355 4.59355L6.2623 4.0873ZM5.1373 4.0873L5.30605 4.59355L4.8748 4.2748H5.3998L4.96855 4.59355L5.1373 4.0873ZM3.99355 4.0873L4.1623 4.59355L3.73105 4.2748H4.25605L3.8248 4.59355L3.99355 4.0873ZM2.8498 4.0873L3.01855 4.59355L2.5873 4.2748H3.1123L2.68105 4.59355L2.8498 4.0873ZM1.70605 4.0873L1.8748 4.59355L1.44355 4.2748H1.96855L1.5373 4.59355L1.70605 4.0873ZM0.562305 4.0873L0.731055 4.59355L0.299805 4.2748H0.824805L0.393555 4.59355L0.562305 4.0873ZM5.6998 3.5998L5.86855 4.10605L5.4373 3.7873H5.9623L5.53105 4.10605L5.6998 3.5998ZM4.55605 3.5998L4.7248 4.10605L4.29355 3.7873H4.81855L4.3873 4.10605L4.55605 3.5998ZM3.43105 3.5998L3.5998 4.10605L3.16855 3.7873H3.69355L3.2623 4.10605L3.43105 3.5998ZM2.2873 3.5998L2.45605 4.10605L2.0248 3.7873H2.5498L2.11855 4.10605L2.2873 3.5998ZM1.14355 3.5998L1.3123 4.10605L0.881055 3.7873H1.40605L0.974805 4.10605L1.14355 3.5998ZM6.2623 3.1123L6.43105 3.61855L5.9998 3.2998H6.5248L6.09355 3.61855L6.2623 3.1123ZM5.1373 3.1123L5.30605 3.61855L4.8748 3.2998H5.3998L4.96855 3.61855L5.1373 3.1123ZM3.99355 3.1123L4.1623 3.61855L3.73105 3.2998H4.25605L3.8248 3.61855L3.99355 3.1123ZM2.8498 3.1123L3.01855 3.61855L2.5873 3.2998H3.1123L2.68105 3.61855L2.8498 3.1123ZM1.70605 3.1123L1.8748 3.61855L1.44355 3.2998H1.96855L1.5373 3.61855L1.70605 3.1123ZM0.562305 3.1123L0.731055 3.61855L0.299805 3.2998H0.824805L0.393555 3.61855L0.562305 3.1123ZM5.6998 2.64355L5.86855 3.1498L5.4373 2.83105H5.9623L5.53105 3.1498L5.6998 2.64355ZM4.55605 2.64355L4.7248 3.1498L4.29355 2.83105H4.81855L4.3873 3.1498L4.55605 2.64355ZM3.43105 2.64355L3.5998 3.1498L3.16855 2.83105H3.69355L3.2623 3.1498L3.43105 2.64355ZM2.2873 2.64355L2.45605 3.1498L2.0248 2.83105H2.5498L2.11855 3.1498L2.2873 2.64355ZM1.14355 2.64355L1.3123 3.1498L0.881055 2.83105H1.40605L0.974805 3.1498L1.14355 2.64355ZM6.2623 2.15605L6.43105 2.6623L5.9998 2.34355H6.5248L6.09355 2.6623L6.2623 2.15605ZM5.1373 2.15605L5.30605 2.6623L4.8748 2.34355H5.3998L4.96855 2.6623L5.1373 2.15605ZM3.99355 2.15605L4.1623 2.6623L3.73105 2.34355H4.25605L3.8248 2.6623L3.99355 2.15605ZM2.8498 2.15605L3.01855 2.6623L2.5873 2.34355H3.1123L2.68105 2.6623L2.8498 2.15605ZM1.70605 2.15605L1.8748 2.6623L1.44355 2.34355H1.96855L1.5373 2.6623L1.70605 2.15605ZM0.562305 2.15605L0.731055 2.6623L0.299805 2.34355H0.824805L0.393555 2.6623L0.562305 2.15605ZM5.6998 1.66855L5.86855 2.1748L5.4373 1.85605H5.9623L5.53105 2.1748L5.6998 1.66855ZM4.55605 1.66855L4.7248 2.1748L4.29355 1.85605H4.81855L4.3873 2.1748L4.55605 1.66855ZM3.43105 1.66855L3.5998 2.1748L3.16855 1.85605H3.69355L3.2623 2.1748L3.43105 1.66855ZM2.2873 1.66855L2.45605 2.1748L2.0248 1.85605H2.5498L2.11855 2.1748L2.2873 1.66855ZM1.14355 1.66855L1.3123 2.1748L0.881055 1.85605H1.40605L0.974805 2.1748L1.14355 1.66855ZM6.2623 1.18105L6.43105 1.6873L5.9998 1.36855H6.5248L6.09355 1.6873L6.2623 1.18105ZM5.1373 1.18105L5.30605 1.6873L4.8748 1.36855H5.3998L4.96855 1.6873L5.1373 1.18105ZM3.99355 1.18105L4.1623 1.6873L3.73105 1.36855H4.25605L3.8248 1.6873L3.99355 1.18105ZM2.8498 1.18105L3.01855 1.6873L2.5873 1.36855H3.1123L2.68105 1.6873L2.8498 1.18105ZM1.70605 1.18105L1.8748 1.6873L1.44355 1.36855H1.96855L1.5373 1.6873L1.70605 1.18105ZM0.562305 1.18105L0.731055 1.6873L0.299805 1.36855H0.824805L0.393555 1.6873L0.562305 1.18105ZM5.6998 0.693555L5.86855 1.1998L5.4373 0.881055H5.9623L5.53105 1.1998L5.6998 0.693555ZM4.55605 0.693555L4.7248 1.1998L4.29355 0.881055H4.81855L4.3873 1.1998L4.55605 0.693555ZM3.43105 0.693555L3.5998 1.1998L3.16855 0.881055H3.69355L3.2623 1.1998L3.43105 0.693555ZM2.2873 0.693555L2.45605 1.1998L2.0248 0.881055H2.5498L2.11855 1.1998L2.2873 0.693555ZM1.14355 0.693555L1.3123 1.1998L0.881055 0.881055H1.40605L0.974805 1.1998L1.14355 0.693555ZM6.2623 0.206055L6.43105 0.712305L5.9998 0.393555H6.5248L6.09355 0.712305L6.2623 0.206055ZM5.1373 0.206055L5.30605 0.712305L4.8748 0.393555H5.3998L4.96855 0.712305L5.1373 0.206055ZM3.99355 0.206055L4.1623 0.712305L3.73105 0.393555H4.25605L3.8248 0.712305L3.99355 0.206055ZM2.8498 0.206055L3.01855 0.712305L2.5873 0.393555H3.1123L2.68105 0.712305L2.8498 0.206055ZM1.70605 0.206055L1.8748 0.712305L1.44355 0.393555H1.96855L1.5373 0.712305L1.70605 0.206055ZM0.562305 0.206055L0.731055 0.712305L0.299805 0.393555H0.824805L0.393555 0.712305L0.562305 0.206055Z" fill="white"/>
</g>
<defs>
<clipPath id="clip0_474_34">
<rect width="12" height="9" fill="white"/>
</clipPath>
</defs>
</svg>
